# xmcd
#
# Track frame offsets: 
#        150
#        13782
#        26624
#        40200
#        53828
#        76124
#        90414
#        102198
#        115126
#        129129
#        141408
#        156112
#        166974
#        179793
#        193364
#        203266
#        215285
#        228041
#        239362
#        252657
#
# Disc length: 3556 seconds
#
# Revision: 0
# Processed by: cddbd v1.5.2PL0 Copyright (c) Steve Scherf et al.
# Submitted via: ExactAudioCopy v0.99pb4
#
DISCID=070de214
DTITLE=Various Artist - The Blues
DYEAR=2007
DGENRE=Blues
TTITLE0=Three O' Clock Blues - B B King
TTITLE1=Just make love to me - Muddy Waters
TTITLE2=Crawlin' kingsnake - John Lee Hooker 
TTITLE3=Story of my life - Guitar Slim
TTITLE4=Piney Brown Blues - Big Joe Turner
TTITLE5=Milk Cow Blues - Kokomo Arnold
TTITLE6=Hellhound on my trail - Robert Johnson
TTITLE7=Baby please don't gp - Big Joe Williams
TTITLE8=How long blues - Jimmy Witherspoon
TTITLE9=Whoopin' the blues - Sonny Terry
TTITLE10=Good woman blues - Lowell Fulsom
TTITLE11=Shake baby shake - Champion Jack Dupree
TTITLE12=Please love me - B B King
TTITLE13=No blow, no show - Bobby Bland
TTITLE14=Thrill me baby - Lil'Son Jackson
TTITLE15=From the bottom - Sonny Boy Williamson
TTITLE16=Forty four - Howlin' Wolf
TTITLE17=I want to be loved - Muddy Waters
TTITLE18=Rollin' and tumblin' - Muddy Waters
TTITLE19=Whole lotta love - B B King
EXTD=
EXTT0=
EXTT1=
EXTT2=
EXTT3=
EXTT4=
EXTT5=
EXTT6=
EXTT7=
EXTT8=
EXTT9=
EXTT10=
EXTT11=
EXTT12=
EXTT13=
EXTT14=
EXTT15=
EXTT16=
EXTT17=
EXTT18=
EXTT19=
PLAYORDER=
